<?xml version="1.0" encoding="UTF-8"?>
<svg version="1.1" xmlns="http://www.w3.org/2000/svg" width="5536" height="3691">
<path d="M0 0 C6.50425972 5.46634593 10.86250526 11.86541928 15.3203125 19.03515625 C15.6503125 19.36515625 15.9803125 19.69515625 16.3203125 20.03515625 C16.85398437 19.33390625 17.38765625 18.63265625 17.9375 17.91015625 C23.14366259 11.2808558 28.47011723 5.93940114 35.3203125 1.03515625 C35.93003906 0.57625 36.53976563 0.11734375 37.16796875 -0.35546875 C53.71930394 -11.85046198 76.00433718 -14.40867366 95.4453125 -10.96484375 C110.61515212 -7.18118306 123.13731648 0.55703404 131.6328125 13.91015625 C141.10570702 31.08981242 143.48498634 48.5664252 143.43383789 67.89648438 C143.43355546 69.39518227 143.43371484 70.89388031 143.4342804 72.39257812 C143.43456619 76.44157429 143.4287047 80.49054056 143.42170644 84.5395298 C143.41543662 88.77826408 143.41486624 93.01699911 143.41368103 97.2557373 C143.41057839 105.27365245 143.40237943 113.2915539 143.39233154 121.30946302 C143.38113721 130.44127461 143.37565159 139.57308686 143.37063611 148.7049036 C143.36019589 167.48166382 143.34186372 186.25840527 143.3203125 205.03515625 C123.5203125 205.03515625 103.7203125 205.03515625 83.3203125 205.03515625 C83.29843872 198.80547974 83.29843872 198.80547974 83.27612305 192.44995117 C83.22573401 178.71157162 83.15927998 164.9733089 83.08459759 151.23504162 C83.0397186 142.90743975 83.00028592 134.57987989 82.97387695 126.25219727 C82.95083269 118.98995496 82.91736344 111.72784649 82.87161094 104.46571046 C82.84776497 100.62392715 82.82897992 96.78227567 82.82269859 92.94042015 C82.81660837 89.3165065 82.79646857 85.69292978 82.76603699 82.06914139 C82.75319575 80.1211007 82.75481588 78.17298104 82.7570343 76.22489929 C82.65146372 66.24987837 81.80999687 55.42417282 74.3203125 48.03515625 C68.39725685 43.59286451 62.58853749 42.55855133 55.3203125 43.03515625 C49.16653127 44.36359156 44.39426534 46.35654044 39.3203125 50.03515625 C38.6603125 50.03515625 38.0003125 50.03515625 37.3203125 50.03515625 C37.3203125 50.69515625 37.3203125 51.35515625 37.3203125 52.03515625 C36.6603125 52.03515625 36.0003125 52.03515625 35.3203125 52.03515625 C35.0521875 52.59460937 34.7840625 53.1540625 34.5078125 53.73046875 C32.78483749 57.07440052 30.75508832 60.21668882 28.7578125 63.40234375 C26.17284313 68.13677135 25.0723462 72.42654763 25.0418396 77.80587769 C25.03067612 78.93320816 25.01951263 80.06053864 25.00801086 81.22203064 C25.00477058 83.05514549 25.00477058 83.05514549 25.00146484 84.92529297 C24.99141922 86.22339401 24.9813736 87.52149506 24.97102356 88.8589325 C24.94379469 92.40597229 24.92859536 95.95297252 24.91559553 99.50008917 C24.89993374 103.21170415 24.87315328 106.92323872 24.8475647 110.63479614 C24.80083076 117.65755232 24.76406065 124.68032372 24.73089182 131.70315564 C24.68547425 141.19706843 24.62462129 150.69088157 24.56464386 160.18471146 C24.47060237 175.13480969 24.3971462 190.08493674 24.3203125 205.03515625 C4.5203125 205.03515625 -15.2796875 205.03515625 -35.6796875 205.03515625 C-35.71707031 195.45226563 -35.75445313 185.869375 -35.79296875 175.99609375 C-35.82326197 169.90753789 -35.8542987 163.81900068 -35.88867188 157.73046875 C-35.94303481 148.07684057 -35.99445283 138.42326412 -36.02612305 128.76953125 C-36.04920849 121.73688676 -36.08272257 114.70437952 -36.12838906 107.67184412 C-36.15218025 103.95348478 -36.17100079 100.23526016 -36.17730141 96.51682663 C-36.1845582 92.35005354 -36.21511408 88.18374497 -36.24731445 84.01708984 C-36.24587936 82.80507401 -36.24444427 81.59305817 -36.2429657 80.34431458 C-36.35964038 69.59492159 -36.90502044 56.31006999 -44.6796875 48.03515625 C-50.52368347 43.5569481 -56.44003737 42.34094322 -63.6796875 43.03515625 C-69.76115337 44.31151329 -74.70903479 46.22046929 -79.6796875 50.03515625 C-80.48535156 50.62941406 -81.29101562 51.22367188 -82.12109375 51.8359375 C-84.79985706 54.13844703 -86.43634919 56.29922745 -88.3046875 59.28515625 C-89.15933594 60.62320312 -89.15933594 60.62320312 -90.03125 61.98828125 C-94.48805986 70.22598668 -95.12309815 76.78849683 -95.11206055 86.06054688 C-95.1222522 87.3491864 -95.13244385 88.63782593 -95.14294434 89.96551514 C-95.17038808 93.47734895 -95.17978151 96.98902085 -95.18579841 100.50094795 C-95.1952152 104.179204 -95.22142111 107.85734066 -95.24580383 111.53552246 C-95.289382 118.4909282 -95.31798214 125.44631065 -95.34112722 132.40181112 C-95.37329843 141.80765883 -95.42875697 151.21336785 -95.48287296 160.61911011 C-95.56744467 175.42441745 -95.62103189 190.22967101 -95.6796875 205.03515625 C-115.4796875 205.03515625 -135.2796875 205.03515625 -155.6796875 205.03515625 C-155.6796875 135.07515625 -155.6796875 65.11515625 -155.6796875 -6.96484375 C-135.8796875 -6.96484375 -116.0796875 -6.96484375 -95.6796875 -6.96484375 C-95.1846875 3.43015625 -95.1846875 3.43015625 -94.6796875 14.03515625 C-93.7309375 12.88015625 -92.7821875 11.72515625 -91.8046875 10.53515625 C-69.25211149 -15.04552114 -27.83151063 -20.40706975 0 0 Z " fill="#FFFFFF" transform="translate(3120.6796875,1630.96484375)"/>
<path d="M0 0 C0.73943848 0.21430664 1.47887695 0.42861328 2.24072266 0.64941406 C31.44099798 9.36572479 54.16991606 29.52040738 68.6875 56.0625 C89.56015375 95.93473748 90.97354558 147.48156864 77.98266602 189.97753906 C74.91991499 199.47706807 70.66809633 208.20128538 66 217 C64.99458119 218.99728141 63.99261771 220.99632586 63 223 C64.09957031 222.72285156 65.19914062 222.44570312 66.33203125 222.16015625 C95.12820435 215.04273478 95.12820435 215.04273478 107 219 C107 235.5 107 252 107 269 C99.20375 269.1546875 99.20375 269.1546875 91.25 269.3125 C73.39921865 269.72397086 55.58050915 270.57006068 37.75 271.5 C4.39817954 273.2347915 4.39817954 273.2347915 -12.1875 273.6875 C-13.48268555 273.72359375 -14.77787109 273.7596875 -16.11230469 273.796875 C-19.74158044 273.88546438 -23.36998265 273.95074996 -27 274 C-27.68968872 274.00986938 -28.37937744 274.01973877 -29.08996582 274.02990723 C-38.08935289 274.14416758 -46.93213347 274.03400171 -55.875 272.875 C-56.88820313 272.74375732 -57.90140625 272.61251465 -58.9453125 272.47729492 C-79.80966117 269.51048152 -98.76259012 261.47310119 -115 248 C-115.84949219 247.31421875 -116.69898438 246.6284375 -117.57421875 245.921875 C-129.56452564 235.75740762 -137.96496734 222.91681994 -145 209 C-145.55429688 207.90558594 -146.10859375 206.81117188 -146.6796875 205.68359375 C-153.37057904 191.27910962 -157.33572928 174.75653704 -159 159 C-159.10957031 158.09121094 -159.21914062 157.18242188 -159.33203125 156.24609375 C-163.48319961 114.67906119 -156.71470158 69.27785183 -129.66796875 36.1015625 C-122.41830201 27.52761969 -114.5682782 19.95983944 -105 14 C-104.13503906 13.42894531 -103.27007813 12.85789062 -102.37890625 12.26953125 C-73.29929262 -6.00101656 -32.6880961 -9.7154848 0 0 Z M-73.4921875 65.29296875 C-92.9137858 87.28063314 -96.39240667 117.95758243 -94.67919922 146.19726562 C-93.59846795 159.88853528 -90.76721312 173.49871744 -85 186 C-84.58234375 186.93972656 -84.1646875 187.87945313 -83.734375 188.84765625 C-78.58631059 199.3656844 -69.93356765 208.50626831 -59 213 C-58.05898437 213.38929688 -57.11796875 213.77859375 -56.1484375 214.1796875 C-41.64585113 219.39773967 -26.87518829 218.1102816 -12.9375 211.875 C1.66670133 204.04141733 10.25349173 190.41845284 15.10107422 175.00366211 C24.04100853 144.30432559 23.28285413 108.05136306 8.75 79.1875 C1.73263284 66.86173657 -8.10277928 57.70359937 -21.83203125 53.5078125 C-39.71869232 49.31814414 -59.75968317 52.21603623 -73.4921875 65.29296875 Z " fill="#FFFFFF" transform="translate(1808,1567)"/>
<path d="M0 0 C0.7425 0.52078125 1.485 1.0415625 2.25 1.578125 C2.8275 2.04734375 3.405 2.5165625 4 3 C4 3.66 4 4.32 4 5 C4.99 5.33 5.98 5.66 7 6 C29.06052947 29.72411039 36.50940427 61.07080726 36.21484375 92.78515625 C35.66411719 106.99116494 32.86940016 120.67860796 28 134 C27.64292969 135.01964844 27.28585938 136.03929687 26.91796875 137.08984375 C20.949787 152.80113493 10.946079 166.39630494 -2 177 C-2.58007812 177.49113281 -3.16015625 177.98226563 -3.7578125 178.48828125 C-25.20890578 195.71415919 -53.75361199 200.92730956 -80.5625 198.3125 C-105.71103354 195.51676147 -129.68542406 183.68764574 -145.703125 163.7421875 C-155.44248014 150.95110633 -162.11719703 136.56507354 -166 121 C-166.3196875 119.73027344 -166.639375 118.46054688 -166.96875 117.15234375 C-171.5879306 96.1122581 -171.19530169 70.59878468 -165 50 C-164.79101074 49.30213379 -164.58202148 48.60426758 -164.36669922 47.88525391 C-156.26798947 21.98758204 -139.81814363 1.51348262 -116.0546875 -11.62890625 C-78.78048437 -31.04458125 -32.44632913 -26.42805841 0 0 Z M-91 38 C-91 38.66 -91 39.32 -91 40 C-91.58910156 40.24363281 -92.17820312 40.48726562 -92.78515625 40.73828125 C-100.44163751 45.0999099 -103.66927824 55.18059262 -105.99609375 63.1640625 C-111.10205761 82.67401001 -110.52896448 105.65768714 -101.25 123.9375 C-95.69075397 133.22618997 -88.96102191 140.27018749 -78.8125 144.25 C-67.07649916 146.55872148 -57.08517608 146.64467562 -46.4296875 140.5234375 C-34.34693682 131.88119888 -28.62176791 118.22132715 -26.1875 104 C-23.03499215 83.60886224 -25.04903842 62.30932722 -37 45 C-37.43957031 44.35160156 -37.87914063 43.70320313 -38.33203125 43.03515625 C-43.95514086 35.62950469 -52.96611603 31.43394984 -62 30 C-72.99548244 29.00041069 -81.71998485 32.32887963 -91 38 Z " fill="#FFFFFF" transform="translate(3697,1642)"/>
<path d="M0 0 C-0.60066168 3.45215137 -1.48724152 6.47662742 -2.85766602 9.69848633 C-3.42814415 11.0493206 -3.42814415 11.0493206 -4.01014709 12.42744446 C-4.42058762 13.3859581 -4.83102814 14.34447174 -5.25390625 15.33203125 C-5.67421616 16.32377853 -6.09452606 17.31552582 -6.52757263 18.33732605 C-7.86812618 21.49761696 -9.21521871 24.65507219 -10.5625 27.8125 C-11.47374003 29.95749851 -12.38455239 32.10267875 -13.29492188 34.24804688 C-15.52499363 39.50081514 -17.76043741 44.75127176 -20 50 C-23.85157971 50 -26.0718187 48.32133488 -29.25 46.375 C-49.36279932 34.51711976 -71.88778031 29.24090889 -95 34 C-102.07796508 36.1866884 -108.16897245 39.43679946 -114.16015625 43.765625 C-116 45 -116 45 -119 46 C-119.70982577 47.31086597 -120.37356453 48.6472987 -121 50 C-121.886875 50.94875 -122.77375 51.8975 -123.6875 52.875 C-139.40277372 70.81884555 -142.22330451 98.48882258 -140.86376953 121.28417969 C-139.52982933 140.3069983 -135.9226288 159.57071567 -124 175 C-124 175.66 -124 176.32 -124 177 C-123.34 177 -122.68 177 -122 177 C-120.80927594 178.15670337 -119.62347091 179.31896029 -118.46484375 180.5078125 C-107.09319017 192.09173695 -92.77932738 196.24540493 -76.8125 196.4375 C-57.57698942 196.31115278 -38.82559161 190.27579264 -23.00390625 179.28515625 C-21 178 -21 178 -19 178 C-18.13400717 180.06115279 -17.26815247 182.12236362 -16.40234375 184.18359375 C-16.13230026 184.82636765 -15.86225677 185.46914154 -15.58403015 186.13139343 C-14.1010754 189.66237323 -12.6204721 193.19431356 -11.14404297 196.72802734 C-10.55051531 198.14813688 -9.95692844 199.56822167 -9.36328125 200.98828125 C-9.07080505 201.68794006 -8.77832886 202.38759888 -8.47698975 203.10845947 C-6.85839318 206.97333693 -5.21694867 210.82664804 -3.54296875 214.66796875 C-3.20982666 215.44277588 -2.87668457 216.21758301 -2.53344727 217.01586914 C-1.94686257 218.37773561 -1.3503643 219.73539435 -0.74194336 221.08764648 C0.34420572 223.63515978 0.99118534 225.85552553 1.16015625 228.625 C-0.74764652 232.53053564 -4.1821787 233.91418498 -7.9375 235.875 C-9.14780884 236.52299561 -9.14780884 236.52299561 -10.38256836 237.18408203 C-23.99130651 244.30209257 -37.9442931 249.08095875 -53 252 C-54.08796875 252.22558594 -55.1759375 252.45117188 -56.296875 252.68359375 C-90.70575052 258.76809003 -126.41339677 251.16060027 -155.0625 231.375 C-183.60907856 210.75914486 -198.53887392 179.31415493 -204.65234375 145.37890625 C-211.20147071 103.26371754 -205.98733439 57.01129312 -180.36694336 21.83105469 C-172.39867587 11.28606221 -163.12327877 2.18229682 -152 -5 C-151.43748535 -5.36335449 -150.8749707 -5.72670898 -150.29541016 -6.10107422 C-139.2105172 -13.12460137 -127.59149317 -17.44125844 -115 -21 C-113.13408203 -21.54333984 -113.13408203 -21.54333984 -111.23046875 -22.09765625 C-73.91724947 -30.94257592 -31.59287249 -20.52523778 0 0 Z " fill="#FFFFFF" transform="translate(3506,1587)"/>
<path d="M0 0 C15.8366684 13.4904953 22.92279605 32.93836645 24.81925106 53.23919106 C25.45215142 61.67567138 25.66911442 70.04715036 25.64477539 78.50537109 C25.64449237 79.87687681 25.64465349 81.24838268 25.6452179 82.61988831 C25.64550138 86.29457561 25.63967811 89.96922937 25.63264394 93.64390898 C25.62633483 97.50223839 25.62580068 101.36056881 25.62461853 105.21890259 C25.62152728 112.50350813 25.61334403 119.78809842 25.60326904 127.07269728 C25.58993344 136.9317111 25.58459015 146.79072917 25.57876682 156.64974976 C25.56940233 172.1519279 25.5494688 187.65407388 25.53125 203.15625 C5.73125 203.15625 -14.06875 203.15625 -34.46875 203.15625 C-34.51773438 194.00648438 -34.56671875 184.85671875 -34.6171875 175.4296875 C-34.65259526 169.61457417 -34.68848908 163.79947048 -34.7265625 157.984375 C-34.78683317 148.76532236 -34.84518477 139.5462877 -34.890625 130.32714844 C-34.92373761 123.61095631 -34.96367252 116.89484389 -35.01154006 110.17874014 C-35.03661524 106.62807914 -35.05845055 103.0774697 -35.07209396 99.52674484 C-35.08751504 95.54684903 -35.11817895 91.56720166 -35.14990234 87.58740234 C-35.15206253 86.43149094 -35.15422272 85.27557953 -35.15644836 84.0846405 C-35.28047498 71.81171155 -35.49908262 58.33030749 -43.84765625 48.5390625 C-50.93399459 42.01268005 -58.74518184 41.65712561 -67.9140625 41.875 C-72.336064 42.22487265 -75.62362462 42.97789571 -79.46875 45.15625 C-80.19320312 45.5584375 -80.91765625 45.960625 -81.6640625 46.375 C-90.91015428 52.01668312 -97.7095815 59.97172756 -101.46875 70.15625 C-102.15822917 74.61385624 -102.16034442 78.99621091 -102.12817383 83.50048828 C-102.14389938 85.44851601 -102.14389938 85.44851601 -102.15994263 87.43589783 C-102.1878897 90.96636303 -102.18565331 94.49621657 -102.17764878 98.02675867 C-102.17450684 101.72771664 -102.19960712 105.42848547 -102.22160339 109.12936401 C-102.25893882 116.12371937 -102.27118513 123.11788035 -102.2742278 130.11232555 C-102.27981083 139.57360624 -102.32453538 149.03469876 -102.36696911 158.4958725 C-102.43271356 173.38271218 -102.44649419 188.26913463 -102.46875 203.15625 C-122.26875 203.15625 -142.06875 203.15625 -162.46875 203.15625 C-162.46875 133.19625 -162.46875 63.23625 -162.46875 -8.84375 C-142.66875 -8.84375 -122.86875 -8.84375 -102.46875 -8.84375 C-102.13875 -1.58375 -101.80875 5.67625 -101.46875 13.15625 C-99.591875 11.17625 -97.715 9.19625 -95.78125 7.15625 C-70.88194773 -18.19214422 -28.53594925 -21.97596092 0 0 Z " fill="#FFFFFF" transform="translate(2529.46875,1632.84375)"/>
<path d="M0 0 C19.8 0 39.6 0 60 0 C60.04898437 9.71308594 60.09796875 19.42617187 60.1484375 29.43359375 C60.18382686 35.59050365 60.21970864 41.74740417 60.2578125 47.90429688 C60.31818824 57.6747015 60.37656539 67.44508851 60.421875 77.21557617 C60.45488599 84.33201188 60.49476709 91.44837083 60.54279006 98.56472164 C60.5679648 102.33040547 60.58977236 106.09603897 60.60334396 109.86178398 C60.61624672 113.41175735 60.6383881 116.9615573 60.66738319 120.51143456 C60.68066745 122.42408263 60.68436452 124.3367899 60.68769836 126.2494812 C60.77765454 135.57023084 61.37899551 145.17015504 67 153 C74.65965604 160.24214858 82.60640356 162.08479624 93 162 C99.85933378 160.93363298 105.40078559 157.98502647 111 154 C111.845625 153.443125 112.69125 152.88625 113.5625 152.3125 C121.1328712 145.13035297 127.04659628 135.48787536 127.51898193 124.94444275 C127.54806954 122.61408638 127.5557286 120.28339803 127.54589844 117.95288086 C127.56140495 116.03433289 127.56140495 116.03433289 127.57722473 114.07702637 C127.60491664 110.59617791 127.60849319 107.11568602 127.60750484 103.63474345 C127.61064855 99.98717448 127.63629684 96.3397627 127.65948486 92.692276 C127.69993743 85.79708889 127.72036017 78.90199611 127.73345876 72.00670868 C127.74936538 64.15166795 127.78779626 56.29678689 127.82805204 48.4418391 C127.9103038 32.29460541 127.96448766 16.1474056 128 0 C135.67536627 -0.02312821 143.35072896 -0.04091753 151.02612209 -0.05181217 C154.58977422 -0.05703995 158.15340257 -0.06413569 161.71704102 -0.07543945 C165.81006097 -0.08834176 169.9030558 -0.09322906 173.99609375 -0.09765625 C175.92418129 -0.10539818 175.92418129 -0.10539818 177.89122009 -0.11329651 C179.66294334 -0.11340981 179.66294334 -0.11340981 181.47045898 -0.11352539 C183.03932106 -0.11685631 183.03932106 -0.11685631 184.63987732 -0.12025452 C187 0 187 0 188 1 C188.10006991 3.70363018 188.13439874 6.38178504 188.12698364 9.0859375 C188.12854363 9.94363235 188.13010362 10.80132721 188.13171089 11.68501282 C188.13572464 14.58169229 188.1325298 17.47832007 188.12939453 20.375 C188.13074841 22.44246451 188.13252826 24.50992877 188.13470459 26.57739258 C188.13928057 32.20945827 188.13748869 37.84150574 188.1343255 43.47357178 C188.13180275 49.35347545 188.1341392 55.23337752 188.13571167 61.11328125 C188.13753361 70.9895862 188.13512641 80.86588368 188.13037109 90.7421875 C188.12492843 102.17848814 188.12669107 113.61477096 188.1321975 125.05107117 C188.13672792 134.85060275 188.13737952 144.65012896 188.13475883 154.44966125 C188.13319567 160.31100761 188.13300336 166.17234558 188.13629532 172.03369141 C188.13917301 177.54276366 188.13720022 183.05181282 188.13140106 188.56088257 C188.13007291 190.58906007 188.1304685 192.61723951 188.13266373 194.64541626 C188.1353731 197.40165838 188.13199674 200.15782525 188.12698364 202.9140625 C188.12921436 203.72756668 188.13144509 204.54107086 188.13374341 205.37922668 C188.11414983 210.88585017 188.11414983 210.88585017 187 212 C185.15881971 212.09381302 183.31402359 212.11743954 181.47045898 212.11352539 C180.28931015 212.11344986 179.10816132 212.11337433 177.89122009 212.11329651 C176.6058284 212.10813522 175.32043671 212.10297394 173.99609375 212.09765625 C172.0338662 212.09553383 172.0338662 212.09553383 170.03199768 212.09336853 C166.54837141 212.0895441 163.06478661 212.07971446 159.58117676 212.06866455 C156.02873292 212.05844882 152.47628241 212.05387056 148.92382812 212.04882812 C141.94919996 212.03809212 134.97460624 212.02049593 128 212 C127.67 204.08 127.34 196.16 127 188 C125.68 189.505625 124.36 191.01125 123 192.5625 C109.92702177 206.92863219 93.74204592 215.91779482 74 217 C72.68128906 217.07927734 72.68128906 217.07927734 71.3359375 217.16015625 C53.55007763 217.71146997 35.73137408 212.70933845 22.375 200.625 C21.59125 199.75875 20.8075 198.8925 20 198 C19.48050781 197.49597656 18.96101563 196.99195313 18.42578125 196.47265625 C5.49717318 183.19541156 -0.13531698 162.51568922 -0.12025452 144.42567444 C-0.12162918 143.14551453 -0.12300385 141.86535461 -0.12442017 140.54640198 C-0.12088195 139.14559913 -0.11724715 137.74479652 -0.11352539 136.34399414 C-0.11324304 134.85529584 -0.11340219 133.36659739 -0.1139679 131.87789917 C-0.11425399 127.8515703 -0.10838758 123.82527141 -0.10139394 119.79894948 C-0.09512918 115.58556729 -0.09455413 111.37218435 -0.09336853 107.15879822 C-0.09026441 99.18689049 -0.08206343 91.21499653 -0.07201904 83.24309486 C-0.06082933 74.16450982 -0.05534026 65.0859241 -0.05032361 56.00733387 C-0.03988004 37.3382132 -0.021546 18.66911139 0 0 Z " fill="#FFFFFF" transform="translate(1929,1624)"/>
<path d="M0 0 C17.44462254 16.13790924 21.68757788 40.41660848 23 63 C23.12328504 67.5319105 23.12724991 72.05965727 23.11352539 76.59301758 C23.11367142 77.88238724 23.11381744 79.1717569 23.1139679 80.50019836 C23.11425149 83.99106717 23.10842642 87.48190069 23.10139394 90.97276139 C23.09508667 94.63757533 23.09455083 98.30239033 23.09336853 101.96720886 C23.09027675 108.88706362 23.08209276 115.80690234 23.07201904 122.72675008 C23.05868561 132.09167551 23.05334058 141.45660542 23.04751682 150.82153797 C23.03815112 165.54770397 23.01821793 180.27383613 23 195 C3.2 195 -16.6 195 -37 195 C-37.33 187.74 -37.66 180.48 -38 173 C-40.31 175.64 -42.62 178.28 -45 181 C-56.76873093 193.24277788 -73.15262081 199.3249798 -90 200 C-90.76183594 200.0515625 -91.52367188 200.103125 -92.30859375 200.15625 C-110.50714704 200.87343437 -127.21149728 193.9254225 -140.44140625 181.75390625 C-149.2437084 172.68351368 -154.49498491 161.33238196 -157 149 C-157.18175781 148.14277344 -157.36351563 147.28554687 -157.55078125 146.40234375 C-160.17512231 126.52581275 -158.35153759 106.72791802 -146 90.34765625 C-133.37385093 75.35410423 -115.82238406 70.12198228 -97 68 C-90.9416917 67.55847656 -84.88248077 67.61420933 -78.8125 67.6875 C-77.19897574 67.69617717 -75.58545031 67.70463822 -73.97192383 67.71289062 C-61.58319472 67.8151861 -49.30837543 68.55650466 -37 70 C-37.8251061 57.99328365 -38.99306762 46.23425871 -48.3125 37.5 C-50.10125091 36.15133822 -50.10125091 36.15133822 -52 35 C-52.60972656 34.61328125 -53.21945313 34.2265625 -53.84765625 33.828125 C-72.16687994 24.08611009 -98.14804077 29.6081845 -117 35 C-120.24998633 36.03408656 -123.47305826 37.10445007 -126.6796875 38.265625 C-129 39 -129 39 -132 39 C-133.74677142 30.35547979 -134.85002961 21.67222933 -135.85986328 12.91845703 C-136.12698808 10.60780293 -136.40103077 8.29803973 -136.67578125 5.98828125 C-136.84936654 4.50525606 -137.02255794 3.02218469 -137.1953125 1.5390625 C-137.27653351 0.85566803 -137.35775452 0.17227356 -137.44143677 -0.53182983 C-137.84207561 -4.04058437 -138.0875483 -7.46831852 -138 -11 C-94.1178035 -23.99403559 -37.52148696 -32.97342793 0 0 Z M-95 109 C-95 109.66 -95 110.32 -95 111 C-95.66 111 -96.32 111 -97 111 C-100.89660804 117.88864635 -102.17905391 124.1259704 -101 132 C-98.85510153 138.57160382 -95.75513588 143.20161032 -90 147 C-80.02346987 151.98826507 -70.52640947 151.91488458 -59.9609375 149.02734375 C-51.12217214 145.96059535 -45.22378507 140.30531831 -41 132 C-37.67651792 123.04233086 -36.3618683 114.51879781 -37 105 C-46.83722065 103.63979171 -56.56248009 102.79080419 -66.5 102.75 C-67.39412598 102.74097656 -68.28825195 102.73195313 -69.20947266 102.72265625 C-78.7365698 102.76503815 -86.65431091 104.36350606 -95 109 Z " fill="#FFFFFF" transform="translate(2304,1641)"/>
<path d="M0 0 C1.175625 1.2684375 1.175625 1.2684375 2.375 2.5625 C3.303125 3.490625 4.23125 4.41875 5.1875 5.375 C19.23151389 22.03185369 22.71896979 45.18298767 22.60205078 66.1652832 C22.60148498 67.57604972 22.60180652 68.98681683 22.60293579 70.39758301 C22.60350371 74.18393567 22.59184149 77.97015859 22.57778788 81.75648141 C22.56518584 85.72958971 22.56410262 89.70270182 22.56173706 93.67582703 C22.55554988 101.18006588 22.53917693 108.68424565 22.51903808 116.18845862 C22.4965925 124.73997962 22.48566399 133.29150361 22.47564721 141.84304678 C22.45480787 159.41623804 22.41816667 176.98934842 22.375 194.5625 C2.905 194.5625 -16.565 194.5625 -36.625 194.5625 C-36.955 187.3025 -37.285 180.0425 -37.625 172.5625 C-40.038125 175.3159375 -40.038125 175.3159375 -42.5 178.125 C-55.30268391 192.1998122 -70.84134937 198.22384617 -89.625 199.5625 C-90.57890625 199.63339844 -91.5328125 199.70429687 -92.515625 199.77734375 C-108.96247359 200.37847126 -125.54508938 194.27795571 -137.93359375 183.56640625 C-152.16992471 170.098309 -157.86593088 152.73330829 -158.625 133.5625 C-158.93678806 116.14523934 -155.18500752 99.19673205 -142.875 86.25 C-125.14726986 69.55264463 -101.71557648 66.96893391 -78.4375 67.25 C-76.82397574 67.25867717 -75.21045031 67.26713822 -73.59692383 67.27539062 C-61.20819472 67.3776861 -48.93337543 68.11900466 -36.625 69.5625 C-38.21665163 51.18466297 -38.21665163 51.18466297 -48.625 36.5625 C-63.91071147 26.03990371 -83.68648663 27.66306597 -101.1081543 30.81494141 C-109.55113688 32.44360194 -117.58665171 34.64576147 -125.65625 37.609375 C-128.625 38.5625 -128.625 38.5625 -132.625 38.5625 C-133.34320003 32.72827079 -134.05506678 26.8933155 -134.76123047 21.05761719 C-135.00202929 19.07498636 -135.24451792 17.09255998 -135.48876953 15.11035156 C-135.84077805 12.2511803 -136.18658105 9.39131419 -136.53125 6.53125 C-136.6406189 5.65384155 -136.74998779 4.77643311 -136.8626709 3.87243652 C-137.47569157 -1.27323675 -137.7299034 -6.25527222 -137.625 -11.4375 C-94.62945685 -24.62631692 -36.27113049 -33.68033545 0 0 Z M-97 111 C-101.37535261 117.8995945 -101.34018882 124.56868063 -100.625 132.5625 C-98.97449907 138.83835682 -94.92466398 143.00716986 -89.625 146.5625 C-80.0946377 151.76457409 -70.7759598 151.30577846 -60.58984375 148.53125 C-52.40213266 145.85595046 -46.94605042 142.09460624 -42.625 134.5625 C-37.77415625 124.92485005 -36.46688586 115.22202838 -36.625 104.5625 C-46.46222065 103.20229171 -56.18748009 102.35330419 -66.125 102.3125 C-67.01912598 102.30347656 -67.91325195 102.29445313 -68.83447266 102.28515625 C-78.87235731 102.32981042 -89.67874109 103.48607638 -97 111 Z " fill="#FFFFFF" transform="translate(2902.625,1641.4375)"/>
<path d="M0 0 C18.40474531 15.92608766 28.73534087 37.84056869 30.99609375 61.9296875 C32.17424017 78.67264148 29.92726322 92.58270374 25.2734375 108.87109375 C-15.6465625 109.20109375 -56.5665625 109.53109375 -98.7265625 109.87109375 C-94.88941653 123.30110466 -91.15826866 135.93026133 -78.82421875 143.69921875 C-61.04176451 152.93802221 -40.54630391 151.53596352 -21.7265625 145.87109375 C-16.22286813 143.89314996 -10.98760901 141.4109093 -5.7265625 138.87109375 C-4.06666887 138.18773781 -2.40270579 137.51356234 -0.7265625 136.87109375 C2.49232748 146.69093322 5.36508507 156.58976794 8.0859375 166.55859375 C8.39990479 167.69280762 8.71387207 168.82702148 9.03735352 169.99560547 C9.32795654 171.07213379 9.61855957 172.14866211 9.91796875 173.2578125 C10.31012573 174.69966919 10.31012573 174.69966919 10.71020508 176.1706543 C11.26338166 178.82288066 11.37986652 181.17110911 11.2734375 183.87109375 C-16.40573452 200.39472068 -52.51181879 205.98511466 -84.046875 198.84375 C-109.26886457 192.17679097 -130.4976418 178.00557411 -143.81640625 155.33984375 C-161.09590664 123.96111912 -165.09442008 86.22007464 -155.28515625 51.67578125 C-147.54631721 25.97161455 -132.85056172 4.75747267 -109.01171875 -8.5 C-74.35316615 -25.68503738 -30.982396 -24.19112582 0 0 Z M-88.9140625 42.05859375 C-96.02513377 50.92810928 -97.49192288 60.69789563 -99.7265625 71.87109375 C-75.9665625 71.87109375 -52.2065625 71.87109375 -27.7265625 71.87109375 C-27.7265625 60.03114751 -29.33974704 48.01088114 -37.58203125 38.796875 C-45.5650815 31.43146887 -53.91313317 29.52905781 -64.59765625 29.66015625 C-74.78150107 30.34670759 -82.0193445 34.74282427 -88.9140625 42.05859375 Z " fill="#FFFFFF" transform="translate(4066.7265625,1639.12890625)"/>
<path d="M0 0 C4.021875 0.12375 8.04375 0.2475 12.1875 0.375 C12.1875 15.555 12.1875 30.735 12.1875 46.375 C30.3375 46.375 48.4875 46.375 67.1875 46.375 C67.1875 62.875 67.1875 79.375 67.1875 96.375 C49.0375 96.375 30.8875 96.375 12.1875 96.375 C12.27836528 113.04016828 12.27836528 113.04016828 12.39648438 129.70507812 C12.45073178 136.50591933 12.50184502 143.30667946 12.53393555 150.10766602 C12.56001987 155.5931965 12.60045886 161.07845349 12.65068626 166.56381416 C12.66732026 168.652447 12.67885606 170.74112711 12.68511391 172.82981682 C12.69479266 175.76435628 12.72289726 178.69820147 12.75512695 181.63256836 C12.75369186 182.48853104 12.75225677 183.34449371 12.7507782 184.22639465 C12.8629362 191.48747669 14.42759849 197.57986231 18.3125 203.75 C22.89729057 207.93611313 27.07233775 209.31585135 33.2734375 209.43359375 C40.56442914 209.02661441 47.22736439 207.48674393 54.1875 205.375 C56.84835584 204.68233277 59.51705206 204.03001553 62.1875 203.375 C63.84871527 208.073312 65.04928154 212.77107817 66.1328125 217.625 C66.30755096 218.40133789 66.48228943 219.17767578 66.662323 219.97753906 C67.02866358 221.61095544 67.39330997 223.24475261 67.75634766 224.87890625 C68.31111801 227.36879742 68.87602085 229.85625071 69.44140625 232.34375 C69.79749773 233.93736098 70.15298681 235.53110671 70.5078125 237.125 C70.67652863 237.86266602 70.84524475 238.60033203 71.01907349 239.36035156 C71.91334451 243.43826961 72.36385123 247.20162766 72.1875 251.375 C45.93379841 263.10742342 15.9287907 267.94097863 -11.75 258.1875 C-26.2966797 252.0606513 -35.96313953 241.71564347 -42.05322266 227.32421875 C-45.59024945 218.24395448 -47.02276235 208.87852118 -47.41015625 199.1796875 C-47.44958847 198.22746811 -47.48902069 197.27524872 -47.52964783 196.29417419 C-48.15482359 178.38894089 -47.92061415 160.45165931 -47.88116455 142.53869629 C-47.87079486 137.32202564 -47.86633816 132.10534994 -47.86132812 126.88867188 C-47.85071635 116.71743274 -47.83318033 106.54622365 -47.8125 96.375 C-55.4025 96.375 -62.9925 96.375 -70.8125 96.375 C-72.91436103 69.46399302 -72.91436103 69.46399302 -68.234375 62.71875 C-65.59910519 59.72942928 -62.60774162 57.21205419 -59.47509766 54.75878906 C-56.96458008 52.66927164 -55.05812171 50.19839496 -53.0625 47.625 C-50.24309915 44.10589383 -47.35106855 40.70694758 -44.3125 37.375 C-40.49642557 33.18389757 -36.90828851 28.85078087 -33.34375 24.4453125 C-29.77899701 20.12139915 -26.10153188 15.89891591 -22.41699219 11.67700195 C-21.89266602 11.075896 -21.36833984 10.47479004 -20.828125 9.85546875 C-20.30694092 9.27539062 -19.78575684 8.6953125 -19.2487793 8.09765625 C-17.78376989 6.43286161 -17.78376989 6.43286161 -16.76098633 4.60546875 C-12.85195616 -1.62986175 -6.48626112 -0.28127183 0 0 Z " fill="#FFFFFF" transform="translate(2653.8125,1577.625)"/>
<path d="M0 0 C1.33514648 -0.01160156 1.33514648 -0.01160156 2.69726562 -0.0234375 C8.60510468 -0.00617574 13.83915969 0.78277542 19.5625 2.25 C20.3980421 5.76063353 20.60525407 8.66824336 20.23291016 12.25219727 C20.08748276 13.7037899 20.08748276 13.7037899 19.93911743 15.18470764 C19.8277243 16.21816818 19.71633118 17.25162872 19.6015625 18.31640625 C19.491539 19.38745102 19.3815155 20.45849579 19.26815796 21.56199646 C19.03449787 23.82253988 18.79724155 26.08271408 18.55664062 28.3425293 C18.1885708 31.8024343 17.83161424 35.26334667 17.4765625 38.72460938 C17.24804632 40.92194275 17.01890093 43.11921079 16.7890625 45.31640625 C16.68171783 46.35189102 16.57437317 47.38737579 16.46377563 48.45423889 C16.36051971 49.41881516 16.25726379 50.38339142 16.15087891 51.37719727 C16.06125885 52.22371353 15.97163879 53.0702298 15.87930298 53.94239807 C15.5824999 56.10432015 15.13714912 58.14673272 14.5625 60.25 C13.2935791 60.21072388 13.2935791 60.21072388 11.99902344 60.1706543 C8.80084773 60.08443539 5.60327223 60.02227512 2.40429688 59.9753418 C1.03104934 59.95049897 -0.34207035 59.91661113 -1.71484375 59.87280273 C-13.72923253 59.4995487 -23.15899823 61.27374409 -32.4375 69.25 C-48.04223721 87.20205996 -47.8894103 111.04193054 -47.94921875 133.4375 C-47.96609698 135.83602803 -47.98425136 138.23454739 -48.00361633 140.63305664 C-48.05078108 146.89312019 -48.08080626 153.15314856 -48.10705566 159.41333008 C-48.14231812 166.95277925 -48.19923396 174.49209338 -48.25244904 182.03143311 C-48.33056894 193.43760401 -48.38147264 204.84360296 -48.4375 216.25 C-68.2375 216.25 -88.0375 216.25 -108.4375 216.25 C-108.4375 146.29 -108.4375 76.33 -108.4375 4.25 C-88.6375 4.25 -68.8375 4.25 -48.4375 4.25 C-47.9425 14.645 -47.9425 14.645 -47.4375 25.25 C-46.303125 23.765 -45.16875 22.28 -44 20.75 C-32.35506279 6.33148755 -18.52523056 -0.16027597 0 0 Z " fill="#FFFFFF" transform="translate(3874.4375,1619.75)"/>
</svg>
